<svg xmlns="http://www.w3.org/2000/svg" width="512" height="512" viewBox="0 0 512 512" role="img" aria-label="Sage Flashcards">
  <defs>
    <linearGradient id="sageGrad" x1="0" y1="0" x2="1" y2="1">
      <stop offset="0" stop-color="#84B673" />
      <stop offset="1" stop-color="#4E7C4D" />
    </linearGradient>
    <linearGradient id="plate" x1="0" y1="0" x2="0" y2="1">
      <stop offset="0" stop-color="#1f1f1f" />
      <stop offset="1" stop-color="#141414" />
    </linearGradient>
  </defs>
  <rect x="0" y="0" width="512" height="512" rx="112" fill="url(#plate)" />
  <rect x="6" y="6" width="500" height="500" rx="106" fill="none" stroke="#84B673" stroke-opacity="0.18" stroke-width="2" />
  <g transform="translate(106,106) scale(8.333)">
    <path d="M18 3C28 9 30 23 18 33 6 23 8 9 18 3Z" fill="url(#sageGrad)" />
    <path d="M18 8C16.2 16 16.2 24 18 30" stroke="#fff" stroke-opacity=".82" stroke-width="1.5" stroke-linecap="round" fill="none" />
    <path d="M18 14c1.8 0 3.4-.8 4.6-2.2M18 20c-1.8 0-3.4-.8-4.6-2.2" stroke="#fff" stroke-opacity=".55" stroke-width="1.3" stroke-linecap="round" fill="none" />
  </g>
</svg>
