<svg xmlns="http://www.w3.org/2000/svg" width="512" height="512" viewBox="0 0 512 512" role="img" aria-label="Sage Flashcards">
  <defs>
    <linearGradient id="plate" x1="0" y1="0" x2="0" y2="1">
      <stop offset="0" stop-color="#1f1f1f" />
      <stop offset="1" stop-color="#141414" />
    </linearGradient>
  </defs>
  <rect x="0" y="0" width="512" height="512" rx="112" fill="url(#plate)" />
  <rect x="6" y="6" width="500" height="500" rx="106" fill="none" stroke="#84B673" stroke-opacity="0.18" stroke-width="2" />
  <svg x="96" y="96" width="320" height="320" viewBox="0 0 96 96">
    <defs>
      <linearGradient id="lg" x1="0.1" y1="0" x2="0.9" y2="1">
        <stop offset="0" stop-color="#a6d68d" />
        <stop offset="0.52" stop-color="#5f9a53" />
        <stop offset="1" stop-color="#3a6739" />
      </linearGradient>
      <linearGradient id="lgDeep" x1="0" y1="0" x2="1" y2="1">
        <stop offset="0" stop-color="#4e7c4d" />
        <stop offset="1" stop-color="#2c5130" />
      </linearGradient>
      <filter id="ds" x="-50%" y="-50%" width="200%" height="200%">
        <feDropShadow dx="0" dy="3" stdDeviation="3" flood-color="#000000" flood-opacity="0.5" />
      </filter>
    </defs>
    <g filter="url(#ds)" transform="translate(8,6) rotate(18 48 48) scale(0.78)">
      <path d="M34 84C18 60 24 26 70 14 70 44 60 74 34 84Z" fill="url(#lgDeep)" />
    </g>
    <g transform="translate(-4,2) rotate(-8 48 48) scale(0.92)">
      <path d="M34 84C18 60 24 26 70 14 70 44 60 74 34 84Z" fill="url(#lg)" />
      <path d="M34 84C44 60 56 36 68 18" fill="none" stroke="#fff" stroke-opacity="0.6" stroke-width="1.4" stroke-linecap="round" />
    </g>
  </svg>
</svg>
